<svg width="19" height="19" viewBox="0 0 19 19" fill="none" xmlns="http://www.w3.org/2000/svg">
<path d="M14.1731 5.71154C14.1731 6.64617 13.4154 7.40385 12.4808 7.40385C11.5461 7.40385 10.7885 6.64617 10.7885 5.71154C10.7885 4.7769 11.5461 4.01923 12.4808 4.01923C13.4154 4.01923 14.1731 4.7769 14.1731 5.71154Z" fill="white"/>
<path fill-rule="evenodd" clip-rule="evenodd" d="M9.1447 1.70239e-07H9.0476C7.09436 -1.03657e-05 5.56362 -1.86104e-05 4.36929 0.160555C3.14682 0.324912 2.18219 0.667892 1.42504 1.42504C0.667892 2.18219 0.324912 3.14682 0.160555 4.36929C-1.86104e-05 5.56362 -1.03657e-05 7.09434 1.70237e-07 9.04759V9.1447C-1.03657e-05 11.098 -1.86104e-05 12.6287 0.160555 13.823C0.324912 15.0455 0.667892 16.0101 1.42504 16.7673C2.18219 17.5244 3.14682 17.8674 4.36929 18.0318C5.56363 18.1923 7.09435 18.1923 9.04761 18.1923H9.1447C11.098 18.1923 12.6287 18.1923 13.823 18.0318C15.0455 17.8674 16.0101 17.5244 16.7673 16.7673C17.5244 16.0101 17.8674 15.0455 18.0318 13.823C18.1923 12.6287 18.1923 11.098 18.1923 9.1447V9.04761C18.1923 7.09435 18.1923 5.56363 18.0318 4.36929C17.8674 3.14682 17.5244 2.18219 16.7673 1.42504C16.0101 0.667892 15.0455 0.324912 13.823 0.160555C12.6287 -1.86104e-05 11.098 -1.03657e-05 9.1447 1.70239e-07ZM2.32252 2.32252C2.80454 1.8405 3.45669 1.5639 4.53841 1.41847C5.63839 1.27058 7.08381 1.26923 9.09615 1.26923C11.1085 1.26923 12.5539 1.27058 13.6539 1.41847C14.7356 1.5639 15.3878 1.8405 15.8698 2.32252C16.3518 2.80454 16.6284 3.45669 16.7738 4.53841C16.9217 5.63839 16.9231 7.08381 16.9231 9.09615C16.9231 9.47712 16.923 9.83776 16.9219 10.1796L16.734 10.1536C14.3278 9.8204 12.1258 11.0713 11.0045 12.9568C9.55806 9.29721 5.7356 6.80144 1.46447 7.41473L1.27343 7.44228C1.28305 6.25301 1.31465 5.31059 1.41847 4.53841C1.5639 3.45669 1.8405 2.80454 2.32252 2.32252Z" fill="white"/>
</svg>
